<svg width="61" height="61" viewBox="0 0 61 61" fill="none" xmlns="http://www.w3.org/2000/svg">
<path d="M30.118 61C46.752 61 60.236 47.516 60.236 30.882C60.236 14.248 46.752 0.764 30.118 0.764C13.484 0.764 0 14.248 0 30.882C0 47.516 13.484 61 30.118 61Z" fill="white"/>
<path d="M30 34.1939L18.8213 45.3726C18.403 45.7909 17.8707 46 17.2243 46C16.5779 46 16.0456 45.7909 15.6274 45.3726C15.2091 44.9544 15 44.4221 15 43.7757C15 43.1293 15.2091 42.597 15.6274 42.1787L26.8061 31L15.6274 19.8213C15.2091 19.403 15 18.8707 15 18.2243C15 17.5779 15.2091 17.0456 15.6274 16.6274C16.0456 16.2091 16.5779 16 17.2243 16C17.8707 16 18.403 16.2091 18.8213 16.6274L30 27.8061L41.1787 16.6274C41.597 16.2091 42.1293 16 42.7757 16C43.4221 16 43.9544 16.2091 44.3726 16.6274C44.7909 17.0456 45 17.5779 45 18.2243C45 18.8707 44.7909 19.403 44.3726 19.8213L33.1939 31L44.3726 42.1787C44.7909 42.597 45 43.1293 45 43.7757C45 44.4221 44.7909 44.9544 44.3726 45.3726C43.9544 45.7909 43.4221 46 42.7757 46C42.1293 46 41.597 45.7909 41.1787 45.3726L30 34.1939Z" fill="#D71D28"/>
</svg>
