<svg width="100" height="100" viewBox="0 0 100 100" fill="none" xmlns="http://www.w3.org/2000/svg">
<path d="M50 100C77.6147 100 100 77.6147 100 50C100 22.3853 77.6147 -1.52373e-06 50 -1.52373e-06C22.3853 -1.52373e-06 0 22.3853 0 50C0 77.6147 22.3853 100 50 100Z" fill="#D71D28"/>
<path d="M75.9692 24.5005C69.8599 17.1163 60.4237 12.7069 50.7318 12.7069L50.5559 12.7136C37.8259 13.3843 28.5956 17.7637 23.1171 25.7257C14.1889 38.698 18.4887 56.7172 19.7006 61.0169C18.9701 62.1226 18.4887 63.4042 18.5019 64.885C18.5385 68.1953 19.1195 75.3372 23.3263 80.0122C27.2708 84.395 35.1631 81.327 35.1631 81.327C35.1631 81.327 42.1788 82.6419 42.1788 78.0366C42.1788 73.4347 36.2621 51.511 31.2186 52.1684C27.7124 52.6266 26.8325 55.897 26.8325 55.897C26.8325 55.897 26.2349 56.1029 25.3683 56.5113C24.0999 50.5979 22.4896 38.2365 28.5325 29.4544C32.7824 23.282 40.2796 19.8588 50.8148 19.2844C58.5411 19.311 66.0449 22.8238 70.9025 28.694C76.454 35.4043 78.5424 44.9833 77.035 56.5445C76.1319 56.1129 75.5044 55.897 75.5044 55.897C75.5044 55.897 74.6245 52.6266 71.1183 52.1684C66.0748 51.511 60.1581 73.4347 60.1581 78.0366C60.1581 82.6419 67.1738 81.327 67.1738 81.327C67.1738 81.327 75.0661 84.395 79.0106 80.0122C83.2174 75.3372 83.7984 68.1953 83.835 64.885C83.8482 63.6034 83.4797 62.4778 82.9119 61.4784C86.5543 42.2574 81.1489 30.7593 75.9692 24.5005Z" fill="white"/>
<path d="M69.0094 30.5019C54.7223 16.8124 39.1369 24.5154 32.8882 30.5019L37.4336 35.2565C37.9881 34.7319 51.1929 22.5332 64.4573 35.2499L69.0094 30.5019Z" fill="white"/>
</svg>
