<svg width="101" height="101" viewBox="0 0 101 101" fill="none" xmlns="http://www.w3.org/2000/svg">
<path d="M50.1182 100.003C77.7329 100.003 100.118 77.6179 100.118 50.0032C100.118 22.3885 77.7329 0.00320282 50.1182 0.00320282C22.5034 0.00320282 0.118164 22.3885 0.118164 50.0032C0.118164 77.6179 22.5034 100.003 50.1182 100.003Z" fill="#D41D29"/>
<path d="M28.7184 26.8379C33.5859 26.8346 37.537 30.6895 37.537 35.4441C37.5403 40.1987 33.5958 44.0536 28.7283 44.0569C23.8608 44.0602 19.9097 40.2054 19.9097 35.4507C19.9064 33.1697 20.836 30.9783 22.4862 29.3613C24.1397 27.7477 26.3809 26.8379 28.7184 26.8379Z" fill="white"/>
<path d="M25.1325 46.9741H56.1305C59.0125 46.9807 61.3467 49.1356 61.3533 51.7984V72.7726C61.3566 75.4421 59.0225 77.6102 56.1305 77.6169H25.1325C22.2438 77.6102 19.9064 75.4421 19.9097 72.7726V51.7984C19.9163 49.1356 22.2505 46.9807 25.1325 46.9741Z" fill="white"/>
<path d="M48.2888 63.3383C49.3248 62.6842 49.3215 61.9604 48.2888 61.3827L37.5976 55.3962C36.7509 54.8782 35.8743 55.1837 35.9241 56.2628L35.9308 68.3619C36.0038 69.5273 36.6845 69.8494 37.6872 69.3115L48.2789 63.3217L48.2888 63.3383Z" fill="#D41D29"/>
<path d="M64.1571 68.7456V55.7633C64.1571 54.9797 64.6717 54.2526 65.5051 53.8542L76.1865 48.7575C78.0192 47.8843 80.3302 48.9501 80.3302 50.67V73.9651C80.3302 75.6949 77.9927 76.7574 76.1632 75.8643L65.4819 70.6448C64.6585 70.243 64.1571 69.5225 64.1571 68.7456Z" fill="white"/>
<path d="M49.8611 22.3883C55.9836 22.3916 60.9408 27.2392 60.9408 33.2191C60.9375 39.1956 55.9737 44.0398 49.8511 44.0365C43.7318 44.0365 38.7713 39.1856 38.7747 33.2091C38.7747 30.3404 39.9434 27.5879 42.0186 25.5592C44.0971 23.5239 46.9193 22.385 49.8611 22.3883Z" fill="white"/>
</svg>
