<svg width="873" height="767" viewBox="0 0 873 767" fill="none" xmlns="http://www.w3.org/2000/svg">
<path d="M587.254 533.776L647.932 298.309H571.734V254.533H704.121V294.17L643.444 533.776H587.254Z" fill="#D41D29"/>
<path d="M796.278 538.942C779.491 538.942 765.475 535.558 754.219 528.769C742.955 521.998 734.446 512.625 728.699 500.686C722.955 488.731 720.086 474.817 720.086 458.963V332.443C720.086 316.123 722.782 301.825 728.19 289.515C733.587 277.225 741.918 267.627 753.182 260.745C764.441 253.841 778.803 250.393 796.278 250.393C813.737 250.393 828.043 253.841 839.198 260.745C850.342 267.627 858.614 277.225 864.014 289.515C869.417 301.825 872.118 316.123 872.118 332.443V458.963C872.118 474.593 869.246 488.441 863.502 500.51C857.758 512.577 849.251 521.998 837.985 528.769C826.729 535.558 812.822 538.942 796.278 538.942ZM796.278 487.574C801.79 487.574 805.755 485.809 808.169 482.23C810.585 478.667 812.078 474.545 812.649 469.825C813.225 465.126 813.515 461.033 813.515 457.582V333.822C813.515 329.923 813.281 325.497 812.822 320.553C812.358 315.609 810.931 311.246 808.515 307.457C806.099 303.654 802.017 301.761 796.278 301.761C790.526 301.761 786.449 303.654 784.035 307.457C781.625 311.246 780.182 315.609 779.726 320.553C779.259 325.497 779.035 329.923 779.035 333.822V457.582C779.035 461.033 779.382 465.126 780.07 469.825C780.758 474.545 782.31 478.667 784.723 482.23C787.137 485.809 790.982 487.574 796.278 487.574Z" fill="#D41D29"/>
<path d="M588.511 766.109V583.211H628.932V738.792H670.927V766.109H588.511Z" fill="white"/>
<path d="M686.734 766.109V583.211H768.924V610.76H727.153V656.144H758.99V684.147H727.153V738.792H769.377V766.109H686.734Z" fill="white"/>
<path d="M804.149 766.109V613.24H776.605V583.211H872.117V613.24H844.795V766.109H804.149Z" fill="white"/>
<path d="M56.6035 102.611L72.0835 -4.30695e-06H103.67V144.517H82.2035V40.88L66.5075 144.517H45.0435L28.1075 42.32V144.517H8.29688V-4.30695e-06H39.8809L56.6035 102.611Z" fill="white"/>
<path d="M141.856 0.000443229V111.488C141.856 121.811 146.403 125.52 153.629 125.52C160.856 125.52 165.389 121.811 165.389 111.488V0.000443229H186.869V110.038C186.869 133.158 175.299 146.374 153.005 146.374C130.709 146.374 119.149 133.158 119.149 110.038V0.000443229H141.856Z" fill="white"/>
<path d="M265.309 -4.30695e-06V20.2293L222.165 123.875H265.309V144.517H198.832V124.288L241.976 20.6427H200.896V-4.30695e-06H265.309Z" fill="white"/>
<path d="M301.432 60.905H332.603V81.5476H301.432V123.876H340.656V144.518H278.723V0.000972256H340.656V20.641H301.432V60.905Z" fill="white"/>
<path d="M348.498 123.876C350.97 124.078 353.861 124.078 356.338 124.078C363.567 124.078 369.349 121.398 369.349 110.249V0.000964856H392.058V108.596C392.058 137.502 376.567 144.929 359.434 144.929C355.311 144.929 352.207 144.929 348.498 144.518V123.876Z" fill="white"/>
<path d="M34.0676 187.421C56.1556 187.421 67.5183 200.634 67.5183 223.754V228.298H46.0383V222.311C46.0383 211.991 41.9183 208.063 34.689 208.063C27.465 208.063 23.3343 211.991 23.3343 222.311C23.3343 252.042 67.7183 257.615 67.7183 298.909C67.7183 322.031 56.1556 335.242 33.8623 335.242C11.569 335.242 0.000976562 322.031 0.000976562 298.909V290.031H21.4756V300.351C21.4756 310.671 26.0143 314.391 33.2383 314.391C40.465 314.391 45.0116 310.671 45.0116 300.351C45.0116 270.618 0.624975 265.045 0.624975 223.754C0.624975 200.634 11.9743 187.421 34.0676 187.421Z" fill="white"/>
<path d="M128.824 291.682L144.306 189.074H175.893V333.589H154.424V229.951L138.73 333.589H117.264L100.333 231.394V333.589H80.5195V189.074H112.104L128.824 291.682Z" fill="white"/>
<path d="M190.545 223.754C190.545 200.634 202.721 187.421 225.025 187.421C247.318 187.421 259.502 200.634 259.502 223.754V298.909C259.502 322.029 247.318 335.24 225.025 335.24C202.721 335.24 190.545 322.029 190.545 298.909V223.754ZM213.254 300.352C213.254 310.672 217.798 314.592 225.025 314.592C232.249 314.592 236.788 310.672 236.788 300.352V222.311C236.788 211.991 232.249 208.061 225.025 208.061C217.798 208.061 213.254 211.991 213.254 222.311V300.352Z" fill="white"/>
<path d="M337.261 305.314L354.605 187.424H375.456L353.154 331.944H319.298L297.008 187.424H319.914L337.261 305.314Z" fill="white"/>
<path d="M416.528 185.773C438.618 185.773 449.981 198.984 449.981 222.104V226.65H428.501V220.664C428.501 210.344 424.378 206.413 417.152 206.413C409.925 206.413 405.794 210.344 405.794 220.664C405.794 250.394 450.178 255.968 450.178 297.261C450.178 320.381 438.618 333.594 416.325 333.594C394.032 333.594 382.461 320.381 382.461 297.261V288.381H403.938V298.701C403.938 309.024 408.474 312.744 415.701 312.744C422.928 312.744 427.472 309.024 427.472 298.701C427.472 268.97 383.088 263.397 383.088 222.104C383.088 198.984 394.437 185.773 416.528 185.773Z" fill="white"/>
<path d="M463.182 187.426H485.886V331.943H463.182V187.426Z" fill="white"/>
<path d="M505.29 299.941L502.407 247.706V187.424H525.114V247.706L522.223 299.941H505.29ZM524.701 331.944H502.821V310.064H524.701V331.944Z" fill="white"/>
<path d="M525.112 766.108H0V743.399H525.112V766.108Z" fill="white"/>
<path d="M868.208 209.61H571.736V187.255H868.208V209.61Z" fill="white"/>
<path d="M8.29688 695.741V654.171L84.4835 430.603H11.7555V384.048H152.214V422.915L74.8649 649.168H152.982V695.741H8.29688Z" fill="white"/>
<path d="M409.287 695.741V435.213H362.341V384.048H525.114V435.213H478.559V695.741H409.287Z" fill="white"/>
<path d="M210.045 501.662L245.677 695.772H202.661L206.965 501.91C207.008 500.038 209.709 499.822 210.045 501.662Z" fill="white"/>
<path d="M303.396 383.98L268.14 557.577C267.802 559.246 265.412 559.23 265.095 557.558L232.215 383.98H303.396Z" fill="white"/>
<path d="M331.092 695.771H289.158L322.713 503.489C323.033 501.643 325.74 501.841 325.793 503.713L331.092 695.771Z" fill="white"/>
</svg>
