<svg width="756" height="66" viewBox="0 0 756 66" fill="none" xmlns="http://www.w3.org/2000/svg">
<path d="M29.016 6.75639L29.8267 8.59906L31.8133 8.37506L30.6373 9.99639L31.8133 11.6177L29.8267 11.3964L29.016 13.3111L28.2053 11.3964L26.0693 11.6177L27.3973 9.99639L26.144 8.37506L28.2053 8.59906L29.016 6.75639ZM17.6747 6.75639L18.4827 8.59906L20.4747 8.37506L19.2933 9.99639L20.4747 11.6177L18.4827 11.3964L17.6747 13.3111L16.864 11.3964L14.7307 11.6177L16.0533 9.99639L14.8027 8.37506L16.864 8.59906L17.6747 6.75639ZM23.4187 14.3431L24.2293 16.1831L26.2187 15.9617L25.0373 17.5831L26.2187 19.2017L24.2293 18.9831L23.4187 20.8977L22.608 18.9831L20.4747 19.2017L21.7973 17.5831L20.5467 15.9617L22.608 16.1831L23.4187 14.3431ZM44.9227 9.84972L43.3787 34.8151C42.64 46.8231 34.392 56.7617 23.4187 60.0791C12.1493 56.7617 4.12267 46.6017 3.38667 34.8151L1.84267 9.84972C2.208 9.62839 2.872 9.40706 3.31467 9.18572L4.93333 34.7431C5.66933 46.0124 13.1813 55.1457 23.4187 58.4604C34.2453 54.8497 41.168 45.4204 41.8293 34.7431L43.4507 9.18572C44.04 9.40706 44.4827 9.62839 44.9227 9.84972ZM34.32 49.1057C31.3013 52.6391 27.6187 55.1457 23.4187 56.6177C19 55.0684 15.3173 52.4177 12.4453 49.1057C15.5387 49.1057 15.6107 47.7057 17.968 47.7057C20.2533 47.7057 20.6933 49.1057 23.4187 49.1057C26.2187 49.1057 26.2907 47.7057 28.72 47.7057C31.224 47.7057 31.3013 49.1057 34.32 49.1057ZM28.72 45.5697C26.2187 45.5697 25.9973 47.0417 23.3467 47.0417C20.84 47.0417 20.4747 45.5697 17.968 45.5697C15.3173 45.5697 15.392 46.9724 12.592 46.9724C11.9307 46.9724 11.2667 46.8231 10.6027 46.6017C10.1627 45.9404 9.79467 45.2017 9.42667 44.5404C10.3093 44.9084 11.1947 45.4204 12.592 45.4204C15.096 45.4204 15.392 44.0231 17.968 44.0231C20.6213 44.0231 20.6933 45.4204 23.3467 45.4204C25.9973 45.4204 26.2187 44.0231 28.72 44.0231C31.3733 44.0231 31.52 45.4204 34.1733 45.4204C35.3493 45.4204 36.3813 45.0524 37.336 44.6124C36.896 45.3511 36.6027 45.8631 36.16 46.6017C35.5707 46.8231 34.9067 47.0417 34.1733 47.0417C31.52 47.0417 31.3013 45.5697 28.72 45.5697ZM23.4187 23.6204L28.1307 33.1217L31.4453 28.7031L39.4 39.2364C39.032 41.7404 37.4107 43.2871 34.1733 43.2871C31.8133 43.2871 31.52 41.8871 28.72 41.8871C25.9973 41.8871 25.7013 43.2871 23.4187 43.2871C20.9147 43.2871 20.7653 41.8871 17.968 41.8871C15.3173 41.8871 14.8747 43.2871 12.592 43.2871C9.27733 43.2871 7.952 42.0311 7.36533 39.3084L15.3173 28.7031L18.632 33.1217L23.4187 23.6204ZM46.7627 8.81773C39.032 4.91639 31.3013 3.14839 23.4187 3.14839C14.7307 3.14839 7.58667 5.13773 0 8.81773L1.62133 34.9644C2.42933 48.0017 11.4133 58.5297 23.4187 61.9217C35.864 58.3111 44.336 47.5564 45.144 34.9644L46.7627 8.81773Z" fill="white"/>
<path d="M96.1782 17.3001H99.7862C100.458 17.3001 101.048 17.2601 101.554 17.1774C102.061 17.0948 102.488 16.9294 102.832 16.6841C103.176 16.4388 103.437 16.0894 103.616 15.6388C103.797 15.1854 103.888 14.5988 103.888 13.8761C103.888 13.1694 103.802 12.5988 103.629 12.1641C103.456 11.7294 103.202 11.3881 102.869 11.1401C102.533 10.8948 102.106 10.7268 101.592 10.6361C101.077 10.5454 100.474 10.5001 99.7862 10.5001H96.1782V17.3001ZM96.1782 26.5054H94.3115V8.92676H99.9329C100.933 8.92676 101.8 9.0121 102.536 9.17477C103.274 9.33743 103.882 9.60943 104.365 9.98543C104.848 10.3614 105.205 10.8601 105.434 11.4814C105.664 12.1028 105.778 12.8654 105.778 13.7641C105.778 15.2548 105.474 16.3881 104.869 17.1641C104.264 17.9428 103.322 18.4468 102.045 18.6761L106.146 26.5054H104.01L100.082 18.8708H96.1782V26.5054Z" fill="white"/>
<path d="M109.631 26.5067V8.92799H120.162V10.4987H111.495V16.8587H119.007V18.4293H111.495V24.936H120.162V26.5067H109.631Z" fill="white"/>
<path d="M125.76 17.6931H129.245C129.917 17.6931 130.506 17.6477 131.013 17.5571C131.52 17.4691 131.946 17.2957 132.29 17.0397C132.632 16.7864 132.896 16.4237 133.074 15.9571C133.256 15.4877 133.346 14.8691 133.346 14.0957C133.346 13.3571 133.261 12.7571 133.088 12.2984C132.917 11.8397 132.661 11.4771 132.325 11.2131C131.992 10.9517 131.565 10.7731 131.05 10.6851C130.533 10.5944 129.933 10.5491 129.245 10.5491H125.76V17.6931ZM125.76 26.5064H123.896V8.92774H129.392C130.392 8.92774 131.258 9.01308 131.994 9.18641C132.733 9.35708 133.341 9.63974 133.824 10.0344C134.306 10.4264 134.664 10.9411 134.893 11.5811C135.122 12.2184 135.234 13.0131 135.234 13.9624C135.234 15.8771 134.765 17.2397 133.824 18.0477C132.882 18.8584 131.405 19.2637 129.392 19.2637H125.76V26.5064Z" fill="white"/>
<path d="M149.941 20.3931C149.941 21.5238 149.802 22.4944 149.525 23.3024C149.245 24.1131 148.837 24.7744 148.296 25.2918C147.757 25.8064 147.101 26.1878 146.333 26.4331C145.562 26.6784 144.688 26.8011 143.706 26.8011C141.808 26.8011 140.338 26.3158 139.298 25.3398C138.261 24.3664 137.738 22.8091 137.738 20.6651V8.92909H139.605V20.4678C139.605 22.1531 139.954 23.3584 140.65 24.0891C141.344 24.8171 142.405 25.1798 143.829 25.1798C145.234 25.1798 146.296 24.8118 147.008 24.0758C147.72 23.3398 148.074 22.1371 148.074 20.4678V8.92909H149.941V20.3931Z" fill="white"/>
<path d="M163.982 21.608C163.982 20.4747 163.686 19.6453 163.099 19.12C162.51 18.5947 161.609 18.3307 160.398 18.3307H156.249V24.9333H160.398C161.609 24.9333 162.51 24.6693 163.099 24.1333C163.686 23.6 163.982 22.76 163.982 21.608ZM163.665 13.6427C163.665 12.432 163.355 11.6053 162.742 11.1627C162.129 10.72 161.273 10.4987 160.177 10.4987H156.249V16.76H160.177C161.257 16.76 162.11 16.536 162.731 16.0853C163.353 15.6347 163.665 14.8213 163.665 13.6427ZM165.873 21.712C165.873 23.368 165.411 24.5813 164.486 25.3493C163.561 26.12 162.059 26.5067 159.982 26.5067H154.385V8.92799H159.982C161.961 8.92799 163.385 9.30665 164.251 10.0693C165.121 10.8267 165.553 11.968 165.553 13.488C165.553 15.4987 164.833 16.8053 163.393 17.4107V17.5067C164.243 17.8347 164.87 18.3227 165.27 18.9707C165.673 19.6187 165.873 20.5307 165.873 21.712Z" fill="white"/>
<path d="M169.653 26.5067V8.92799H171.517V24.936H179.717V26.5067H169.653Z" fill="white"/>
<path d="M182.764 26.5067H184.628V8.92804H182.764V26.5067Z" fill="white"/>
<path d="M189.489 8.92774H191.353V16.6851H192.999L198.719 8.92774H200.879L194.521 17.4211L201.028 26.5064H198.769L192.876 18.2824H191.353V26.5064H189.489V8.92774Z" fill="white"/>
<path d="M205.495 20.6378H211.975L208.786 10.5978H208.687L205.495 20.6378ZM212.468 22.2085H205.004L203.655 26.5071H201.74L207.508 8.92847H210.012L215.807 26.5071H213.842L212.468 22.2085Z" fill="white"/>
<path d="M234.095 21.8656C234.095 22.7509 233.993 23.5082 233.788 24.1376C233.583 24.7669 233.249 25.2789 232.783 25.6709C232.313 26.0656 231.713 26.3509 230.977 26.5296C230.241 26.7109 229.348 26.8016 228.303 26.8016C227.369 26.8016 226.519 26.7349 225.748 26.6042C224.98 26.4736 224.225 26.2682 223.489 25.9909L223.884 24.3962C224.569 24.6416 225.311 24.8336 226.105 24.9722C226.897 25.1109 227.703 25.1802 228.521 25.1802C229.161 25.1802 229.708 25.1349 230.167 25.0442C230.625 24.9562 231.007 24.7936 231.308 24.5562C231.612 24.3162 231.836 23.9936 231.983 23.5856C232.132 23.1776 232.204 22.6602 232.204 22.0389C232.204 21.5322 232.151 21.0922 232.044 20.7242C231.937 20.3562 231.743 20.0389 231.457 19.7669C231.169 19.4976 230.785 19.2576 230.303 19.0416C229.82 18.8309 229.209 18.6176 228.473 18.4042C227.655 18.1776 226.94 17.9269 226.324 17.6576C225.711 17.3856 225.204 17.0549 224.804 16.6629C224.401 16.2682 224.103 15.8069 223.908 15.2736C223.711 14.7429 223.612 14.1082 223.612 13.3722C223.612 11.8016 224.055 10.6176 224.937 9.82558C225.82 9.03091 227.196 8.63624 229.063 8.63624C229.831 8.63624 230.596 8.70291 231.359 8.84424C232.119 8.98291 232.836 9.18291 233.505 9.44424L233.185 11.0149C232.516 10.7856 231.863 10.6069 231.223 10.4762C230.585 10.3429 229.889 10.2789 229.135 10.2789C227.828 10.2789 226.897 10.5082 226.351 10.9669C225.801 11.4256 225.527 12.1856 225.527 13.2496C225.527 13.7882 225.596 14.2389 225.737 14.5989C225.876 14.9616 226.084 15.2629 226.361 15.5082C226.639 15.7536 226.991 15.9669 227.417 16.1456C227.844 16.3269 228.343 16.4976 228.916 16.6629C229.945 16.9882 230.796 17.3056 231.468 17.6069C232.14 17.9109 232.668 18.2549 233.052 18.6389C233.436 19.0229 233.705 19.4709 233.863 19.9882C234.017 20.5056 234.095 21.1296 234.095 21.8656Z" fill="white"/>
<path d="M237.557 26.5067V8.92799H239.421V24.936H247.621V26.5067H237.557Z" fill="white"/>
<path d="M256.46 25.1567C257.375 25.1567 258.143 25.0207 258.756 24.7514C259.369 24.4794 259.86 24.0474 260.228 23.4501C260.599 22.8527 260.857 22.0794 261.015 21.1301C261.169 20.1807 261.244 19.0287 261.244 17.6687C261.244 16.2927 261.169 15.1381 261.015 14.1941C260.857 13.2527 260.599 12.4927 260.228 11.9114C259.86 11.3301 259.369 10.9141 258.756 10.6581C258.143 10.4074 257.375 10.2794 256.46 10.2794C255.543 10.2794 254.777 10.4074 254.161 10.6581C253.551 10.9141 253.06 11.3301 252.692 11.9114C252.321 12.4927 252.06 13.2527 251.905 14.1941C251.751 15.1381 251.671 16.2927 251.671 17.6687C251.671 19.0287 251.751 20.1807 251.905 21.1301C252.06 22.0794 252.321 22.8527 252.692 23.4501C253.06 24.0474 253.551 24.4794 254.161 24.7514C254.777 25.0207 255.543 25.1567 256.46 25.1567ZM256.484 26.8021C255.337 26.8021 254.34 26.6501 253.489 26.3461C252.639 26.0447 251.935 25.5407 251.377 24.8367C250.82 24.1327 250.404 23.2047 250.127 22.0501C249.847 20.8954 249.708 19.4687 249.708 17.7674C249.708 16.0634 249.847 14.6287 250.127 13.4581C250.404 12.2874 250.82 11.3461 251.377 10.6367C251.935 9.92206 252.639 9.41006 253.489 9.10073C254.34 8.78873 255.337 8.63406 256.484 8.63406C257.612 8.63406 258.599 8.78873 259.441 9.10073C260.287 9.41006 260.985 9.9194 261.543 10.6234C262.097 11.3274 262.516 12.2607 262.793 13.4207C263.071 14.5834 263.212 16.0074 263.212 17.6927C263.212 19.4127 263.076 20.8527 262.807 22.0127C262.535 23.1754 262.127 24.1114 261.577 24.8234C261.028 25.5354 260.329 26.0447 259.481 26.3461C258.628 26.6501 257.631 26.8021 256.484 26.8021Z" fill="white"/>
<path d="M264.928 8.92774H266.842L271.557 24.6877H271.656L276.32 8.92774H278.138L272.858 26.5064H270.232L264.928 8.92774Z" fill="white"/>
<path d="M280.812 26.5067V8.92799H291.341V10.4987H282.677V16.8587H290.191V18.4293H282.677V24.936H291.341V26.5067H280.812Z" fill="white"/>
<path d="M296.892 10.9173H296.794V26.5067H295.076V8.92799H297.826L305.706 24.4933H305.804V8.92799H307.522V26.5067H304.796L296.892 10.9173Z" fill="white"/>
<path d="M312.38 26.507H314.244V8.92841H312.38V26.507Z" fill="white"/>
<path d="M321.489 8.92776V25.1064C321.489 25.9411 321.42 26.6771 321.281 27.3171C321.142 27.9544 320.905 28.5091 320.569 28.9864C320.233 29.4584 319.788 29.8691 319.23 30.2131C318.676 30.5571 317.977 30.8504 317.142 31.0958L316.654 29.5251C317.209 29.3624 317.676 29.1624 318.054 28.9224C318.428 28.6878 318.734 28.3971 318.974 28.0531C319.209 27.7091 319.377 27.3091 319.478 26.8504C319.574 26.3918 319.625 25.8611 319.625 25.2558V8.92776H321.489Z" fill="white"/>
<path d="M327.921 20.6378H334.403L331.211 10.5978H331.115L327.921 20.6378ZM334.894 22.2085H327.433L326.081 26.5071H324.166L329.934 8.92847H332.438L338.233 26.5071H336.267L334.894 22.2085Z" fill="white"/>
<path d="M97.7729 38.3877L101.333 46.3664H101.456L104.992 38.3877H108.944V55.9664H105.85V42.9531H105.728L102.733 49.8037H99.8369L96.8156 42.9771H96.6929V55.9664H93.6982V38.3877H97.7729Z" fill="white"/>
<path d="M112.625 38.3867H116.038V55.9627H112.625V38.3867Z" fill="white"/>
<path d="M122.936 42.7824H122.813V55.9664H119.768V38.3877H124.288L130.226 51.9637H130.349V38.3877H133.394V55.9664H128.853L122.936 42.7824Z" fill="white"/>
<path d="M137.124 38.3871H140.537V55.9631H137.124V38.3871Z" fill="white"/>
<path d="M155.12 50.8686C155.12 51.8473 155 52.6766 154.762 53.3566C154.528 54.0339 154.141 54.5886 153.61 55.0206C153.077 55.4553 152.4 55.7699 151.573 55.9646C150.746 56.1619 149.744 56.2606 148.565 56.2606C147.549 56.2606 146.629 56.1939 145.802 56.0633C144.976 55.9326 144.202 55.7539 143.482 55.5246L144.096 52.5779C144.768 52.8046 145.52 52.9939 146.354 53.1406C147.189 53.2899 147.992 53.3619 148.76 53.3619C149.168 53.3619 149.546 53.3299 149.89 53.2659C150.234 53.1993 150.528 53.0819 150.776 52.9219C151.018 52.7566 151.213 52.5273 151.352 52.2366C151.49 51.9379 151.56 51.5699 151.56 51.1273C151.56 50.7859 151.512 50.4899 151.41 50.2446C151.314 49.9993 151.152 49.7859 150.922 49.5939C150.693 49.4073 150.389 49.2339 150.013 49.0793C149.637 48.9246 149.162 48.7646 148.589 48.5993C147.786 48.3699 147.074 48.1219 146.453 47.8526C145.832 47.5806 145.312 47.2446 144.896 46.8313C144.477 46.4233 144.157 45.9299 143.938 45.3486C143.717 44.7673 143.605 44.0499 143.605 43.1993C143.605 41.3326 144.114 40.0179 145.128 39.2446C146.144 38.4793 147.648 38.0953 149.645 38.0953C150.496 38.0953 151.29 38.1673 152.026 38.3166C152.762 38.4633 153.522 38.6953 154.309 39.0126L153.893 41.8499C153.285 41.6046 152.624 41.4126 151.904 41.2739C151.184 41.1353 150.453 41.0633 149.72 41.0633C149.341 41.0633 148.997 41.0846 148.688 41.1246C148.376 41.1673 148.106 41.2553 147.877 41.3939C147.648 41.5326 147.469 41.7246 147.336 41.9699C147.205 42.2153 147.141 42.5459 147.141 42.9513C147.141 43.3593 147.205 43.7033 147.336 43.9806C147.469 44.2579 147.664 44.4953 147.925 44.6926C148.189 44.8873 148.512 45.0579 148.896 45.2046C149.282 45.3539 149.733 45.5006 150.258 45.6473C151.157 45.9113 151.92 46.1779 152.541 46.4579C153.162 46.7353 153.661 47.0713 154.04 47.4606C154.416 47.8526 154.69 48.3193 154.861 48.8606C155.034 49.3966 155.12 50.0686 155.12 50.8686Z" fill="white"/>
<path d="M164.35 41.3582V55.9662H160.937V41.3582H156.348V38.3875H168.942V41.3582H164.35Z" fill="white"/>
<path d="M180.11 43.715C180.11 42.7657 179.889 42.1283 179.446 41.8003C179.006 41.4723 178.236 41.307 177.14 41.307H174.71V46.267H177.14C177.729 46.267 178.214 46.2217 178.601 46.1337C178.985 46.0457 179.289 45.9017 179.508 45.7043C179.729 45.507 179.884 45.243 179.974 44.9177C180.065 44.5923 180.11 44.1897 180.11 43.715ZM183.596 43.619C183.596 44.8457 183.374 45.8777 182.934 46.7123C182.492 47.547 181.772 48.1603 180.774 48.5523L184.652 55.9657H180.724L177.31 49.0643H174.71V55.9657H171.297V38.387H177.361C178.556 38.387 179.553 38.499 180.356 38.7177C181.156 38.939 181.796 39.2723 182.27 39.715C182.745 40.1577 183.084 40.7043 183.289 41.3577C183.494 42.011 183.596 42.7657 183.596 43.619Z" fill="white"/>
<path d="M197.837 50.8686C197.837 51.8473 197.717 52.6766 197.479 53.3566C197.242 54.0339 196.858 54.5886 196.327 55.0206C195.794 55.4553 195.117 55.7699 194.287 55.9646C193.463 56.1619 192.461 56.2606 191.279 56.2606C190.266 56.2606 189.346 56.1939 188.519 56.0633C187.693 55.9326 186.919 55.7539 186.199 55.5246L186.813 52.5779C187.485 52.8046 188.237 52.9939 189.071 53.1406C189.906 53.2899 190.709 53.3619 191.477 53.3619C191.885 53.3619 192.263 53.3299 192.607 53.2659C192.951 53.1993 193.245 53.0819 193.493 52.9219C193.735 52.7566 193.927 52.5273 194.069 52.2366C194.207 51.9379 194.277 51.5699 194.277 51.1273C194.277 50.7859 194.226 50.4899 194.13 50.2446C194.031 49.9993 193.869 49.7859 193.639 49.5939C193.41 49.4073 193.106 49.2339 192.73 49.0793C192.354 48.9246 191.879 48.7646 191.306 48.5993C190.503 48.3699 189.791 48.1219 189.17 47.8526C188.549 47.5806 188.029 47.2446 187.613 46.8313C187.194 46.4233 186.874 45.9299 186.653 45.3486C186.434 44.7673 186.322 44.0499 186.322 43.1993C186.322 41.3326 186.829 40.0179 187.845 39.2446C188.861 38.4793 190.365 38.0953 192.362 38.0953C193.213 38.0953 194.007 38.1673 194.743 38.3166C195.479 38.4633 196.239 38.6953 197.026 39.0126L196.61 41.8499C196.002 41.6046 195.341 41.4126 194.621 41.2739C193.901 41.1353 193.173 41.0633 192.437 41.0633C192.058 41.0633 191.714 41.0846 191.405 41.1246C191.093 41.1673 190.823 41.2553 190.594 41.3939C190.365 41.5326 190.186 41.7246 190.053 41.9699C189.922 42.2153 189.858 42.5459 189.858 42.9513C189.858 43.3593 189.922 43.7033 190.053 43.9806C190.186 44.2579 190.381 44.4953 190.642 44.6926C190.903 44.8873 191.229 45.0579 191.613 45.2046C191.997 45.3539 192.45 45.5006 192.975 45.6473C193.874 45.9113 194.637 46.1779 195.258 46.4579C195.879 46.7353 196.378 47.0713 196.757 47.4606C197.133 47.8526 197.407 48.3193 197.578 48.8606C197.751 49.3966 197.837 50.0686 197.837 50.8686Z" fill="white"/>
<path d="M207.065 41.3582V55.9662H203.652V41.3582H199.062V38.3875H211.657V41.3582H207.065Z" fill="white"/>
<path d="M222.213 55.9659H217.082L212.319 38.3872H215.927L219.658 52.9952H219.781L223.538 38.3872H226.999L222.213 55.9659Z" fill="white"/>
<path d="M235.518 53.2899C236.238 53.2899 236.832 53.1886 237.296 52.9833C237.763 52.7779 238.131 52.4393 238.403 51.9646C238.672 51.4899 238.862 50.8553 238.968 50.0633C239.072 49.2659 239.126 48.2899 239.126 47.1299C239.126 45.9486 239.072 44.9699 238.968 44.1939C238.862 43.4179 238.672 42.7939 238.403 42.3299C238.131 41.8606 237.763 41.5326 237.296 41.3459C236.832 41.1593 236.238 41.0633 235.518 41.0633C234.798 41.0633 234.206 41.1593 233.736 41.3459C233.272 41.5326 232.904 41.8606 232.632 42.3299C232.363 42.7939 232.174 43.4179 232.07 44.1939C231.963 44.9699 231.91 45.9486 231.91 47.1299C231.91 48.2899 231.963 49.2659 232.07 50.0633C232.174 50.8553 232.363 51.4899 232.632 51.9646C232.904 52.4393 233.272 52.7779 233.736 52.9833C234.206 53.1886 234.798 53.2899 235.518 53.2899ZM235.542 56.2606C234.331 56.2606 233.275 56.1219 232.376 55.8419C231.475 55.5646 230.726 55.0819 230.128 54.3939C229.531 53.7059 229.086 52.7806 228.792 51.6206C228.496 50.4579 228.35 48.9939 228.35 47.2233C228.35 45.4606 228.496 43.9886 228.792 42.8179C229.086 41.6499 229.531 40.7139 230.128 40.0099C230.726 39.3033 231.475 38.8099 232.376 38.5219C233.275 38.2366 234.331 38.0953 235.542 38.0953C236.736 38.0953 237.782 38.2366 238.672 38.5219C239.566 38.8099 240.31 39.3006 240.907 39.9966C241.504 40.6926 241.95 41.6179 242.246 42.7833C242.539 43.9459 242.686 45.4019 242.686 47.1513C242.686 48.9353 242.544 50.4126 242.256 51.5833C241.971 52.7539 241.534 53.6873 240.942 54.3833C240.355 55.0793 239.608 55.5646 238.71 55.8419C237.808 56.1219 236.752 56.2606 235.542 56.2606Z" fill="white"/>
<path d="M377.804 53.4271C378.492 53.4271 379.057 53.3311 379.503 53.1338C379.945 52.9391 380.297 52.6165 380.556 52.1631C380.812 51.7098 380.993 51.1045 381.095 50.3498C381.193 49.5925 381.247 48.6565 381.247 47.5525C381.247 46.4271 381.193 45.4938 381.095 44.7525C380.993 44.0111 380.812 43.4165 380.556 42.9738C380.297 42.5285 379.945 42.2138 379.503 42.0378C379.057 41.8565 378.492 41.7658 377.804 41.7658C377.116 41.7658 376.553 41.8565 376.105 42.0378C375.663 42.2138 375.311 42.5285 375.052 42.9738C374.796 43.4165 374.615 44.0111 374.513 44.7525C374.412 45.4938 374.361 46.4271 374.361 47.5525C374.361 48.6565 374.412 49.5925 374.513 50.3498C374.615 51.1045 374.796 51.7098 375.052 52.1631C375.311 52.6165 375.663 52.9391 376.105 53.1338C376.553 53.3311 377.116 53.4271 377.804 53.4271ZM377.828 56.2591C376.673 56.2591 375.665 56.1285 374.807 55.8618C373.948 55.5978 373.233 55.1365 372.665 54.4805C372.095 53.8245 371.668 52.9418 371.388 51.8351C371.108 50.7285 370.967 49.3311 370.967 47.6431C370.967 45.9605 371.108 44.5551 371.388 43.4405C371.668 42.3231 372.095 41.4325 372.665 40.7605C373.233 40.0885 373.948 39.6165 374.807 39.3418C375.665 39.0698 376.673 38.9365 377.828 38.9365C378.967 38.9365 379.961 39.0698 380.812 39.3418C381.663 39.6165 382.375 40.0858 382.943 40.7498C383.513 41.4111 383.937 42.2965 384.22 43.4058C384.5 44.5151 384.641 45.9045 384.641 47.5738C384.641 49.2751 384.505 50.6831 384.231 51.8005C383.959 52.9151 383.54 53.8058 382.977 54.4698C382.417 55.1338 381.705 55.5978 380.849 55.8618C379.991 56.1285 378.983 56.2591 377.828 56.2591Z" fill="white"/>
<path d="M250.246 55.9659V52.9686L258.105 41.3072H250.614V38.3872H261.934V41.3339L253.979 53.0459H262.105V55.9659H250.246Z" fill="white"/>
<path d="M268.585 49.3865H273.004L270.844 41.4798H270.719L268.585 49.3865ZM273.788 52.2585H267.799L266.815 55.9652H263.233L268.561 38.3865H273.151L278.503 55.9652H274.82L273.788 52.2585Z" fill="white"/>
<path d="M359.968 41.7781V46.5861C360.811 46.5861 361.63 46.6021 362.448 46.5807C362.896 46.5674 363.352 46.5301 363.792 46.4367C364.411 46.3034 364.859 45.9301 365.024 45.2901C365.219 44.5354 365.227 43.7754 365.03 43.0234C364.896 42.5087 364.563 42.1354 364.048 41.9967C363.619 41.8794 363.166 41.8021 362.718 41.7887C361.806 41.7567 360.891 41.7781 359.968 41.7781ZM359.955 55.9674H356.667V38.9567C356.766 38.9514 356.87 38.9434 356.974 38.9434C358.971 38.9434 360.968 38.9247 362.966 38.9487C363.966 38.9621 364.96 39.0821 365.912 39.4394C367.187 39.9194 368.014 40.7994 368.312 42.1381C368.611 43.4741 368.614 44.8101 368.24 46.1327C367.904 47.3221 367.171 48.1834 366.043 48.7007C365.976 48.7327 365.91 48.7674 365.808 48.8181C367.048 51.1941 368.28 53.5541 369.534 55.9514C369.427 55.9594 369.347 55.9727 369.27 55.9727C368.19 55.9754 367.112 55.9674 366.032 55.9807C365.811 55.9834 365.715 55.9061 365.622 55.7141C364.616 53.6661 363.598 51.6234 362.592 49.5754C362.496 49.3754 362.39 49.2927 362.158 49.2981C361.435 49.3141 360.715 49.3034 359.955 49.3034V55.9674Z" fill="white"/>
<path d="M300.499 38.9565H303.803V39.3405C303.803 42.8605 303.792 46.3778 303.814 49.8978C303.816 50.4818 303.912 51.0792 304.056 51.6472C304.291 52.5512 304.912 53.0872 305.838 53.2658C306.624 53.4205 307.406 53.4178 308.179 53.2338C309.248 52.9805 309.883 52.1752 310.014 50.9272C310.059 50.4978 310.083 50.0658 310.083 49.6365C310.088 46.2125 310.086 42.7912 310.086 39.3698V38.9645H313.36V39.3218C313.36 42.8845 313.363 46.4472 313.358 50.0072C313.355 50.8952 313.259 51.7725 312.976 52.6178C312.424 54.2872 311.299 55.3805 309.611 55.8578C307.744 56.3885 305.862 56.3992 304.003 55.8365C302.131 55.2712 301.072 53.9352 300.707 52.0525C300.568 51.3512 300.512 50.6232 300.507 49.9032C300.488 46.3965 300.499 42.8872 300.499 39.3778V38.9565Z" fill="white"/>
<path d="M340.323 38.9585H343.627V39.3532C343.627 42.8625 343.619 46.3692 343.635 49.8785C343.638 50.4119 343.715 50.9532 343.827 51.4759C344.057 52.5265 344.745 53.1292 345.801 53.2999C346.529 53.4199 347.262 53.4119 347.985 53.2412C349.062 52.9879 349.71 52.1745 349.838 50.9132C349.883 50.4865 349.907 50.0519 349.907 49.6225C349.913 46.2012 349.91 42.7799 349.91 39.3559V38.9585H353.169C353.174 39.0732 353.185 39.1879 353.185 39.3025C353.185 42.8865 353.187 46.4705 353.182 50.0519C353.179 50.9185 353.078 51.7719 352.809 52.6012C352.281 54.2225 351.203 55.3212 349.577 55.8172C347.678 56.3959 345.753 56.4119 343.846 55.8412C341.958 55.2785 340.894 53.9372 340.529 52.0412C340.393 51.3372 340.337 50.6092 340.331 49.8919C340.313 46.3825 340.323 42.8732 340.323 39.3665V38.9585Z" fill="white"/>
<path d="M289.689 48.5456V55.9509H286.403V38.9589H289.67V45.8576C289.974 45.8576 290.251 45.8763 290.523 45.8469C290.614 45.8363 290.707 45.7109 290.766 45.6203C292.161 43.5056 293.555 41.3909 294.937 39.2683C295.097 39.0203 295.262 38.9323 295.553 38.9349C296.63 38.9536 297.707 38.9429 298.849 38.9429C298.753 39.0949 298.683 39.2069 298.609 39.3163C296.886 41.8096 295.169 44.3029 293.438 46.7882C293.299 46.9882 293.294 47.1162 293.43 47.3216C295.278 50.1162 297.118 52.9189 298.958 55.7216C298.998 55.7829 299.035 55.8469 299.102 55.9509C298.985 55.9616 298.897 55.9722 298.809 55.9722C297.707 55.9749 296.606 55.9669 295.507 55.9802C295.291 55.9829 295.182 55.9056 295.075 55.7322C293.691 53.5109 292.278 51.3056 290.926 49.0629C290.611 48.5429 290.267 48.3936 289.689 48.5456Z" fill="white"/>
<path d="M338.237 41.8H333.867V55.9493H330.557V41.8133H326.128V38.9573H338.237V41.8Z" fill="white"/>
<path d="M327.094 55.9615H316.771V38.9589H320.051V53.1082H327.094V55.9615Z" fill="white"/>
<path d="M561.298 44.3793C562.962 46.1019 565.202 46.9659 568.021 46.9659C570.802 46.9659 573.026 46.0993 574.69 44.3659C576.351 42.6326 577.183 40.2299 577.183 37.1633C577.183 34.0673 576.346 31.6513 574.669 29.9126C572.994 28.1766 570.759 27.3073 567.967 27.3073C566.426 27.3073 565.063 27.5579 563.885 28.0593C562.997 28.4299 562.178 29.0006 561.434 29.7713C560.69 30.5393 560.101 31.4086 559.669 32.3766C559.093 33.6913 558.805 35.3153 558.805 37.2539C558.805 40.2779 559.634 42.6539 561.298 44.3793ZM564.213 32.2006C565.173 31.1126 566.442 30.5686 568.013 30.5686C569.586 30.5686 570.845 31.1073 571.794 32.1819C572.743 33.2566 573.218 34.8859 573.218 37.0699C573.218 39.2833 572.73 40.9419 571.754 42.0459C570.781 43.1499 569.533 43.7046 568.013 43.7046C566.493 43.7046 565.239 43.1473 564.253 42.0326C563.263 40.9179 562.77 39.2833 562.77 37.1233C562.77 34.9313 563.253 33.2886 564.213 32.2006ZM582.906 46.6139V44.5953C583.458 45.3633 584.117 45.9499 584.879 46.3553C585.645 46.7633 586.421 46.9659 587.205 46.9659C588.802 46.9659 590.159 46.3286 591.279 45.0513C592.397 43.7739 592.957 41.9553 592.957 39.5926C592.957 37.3099 592.405 35.5579 591.303 34.3366C590.205 33.1179 588.813 32.5073 587.13 32.5073C585.586 32.5073 584.253 33.1446 583.125 34.4219V27.6593H579.511V46.6139H582.906ZM583.954 36.3126C584.538 35.6273 585.266 35.2833 586.146 35.2833C587.042 35.2833 587.775 35.6379 588.349 36.3393C588.922 37.0433 589.21 38.1873 589.21 39.7793C589.21 41.2699 588.925 42.3633 588.354 43.0593C587.786 43.7526 587.095 44.0993 586.287 44.0993C585.237 44.0993 584.394 43.6113 583.759 42.6326C583.309 41.9446 583.082 40.8779 583.082 39.4379C583.082 38.0406 583.373 36.9979 583.954 36.3126ZM605.698 33.5739C604.711 32.8646 603.381 32.5073 601.706 32.5073C599.663 32.5073 598.042 33.1446 596.842 34.4166C595.645 35.6886 595.045 37.4673 595.045 39.7499C595.045 42.0059 595.642 43.7739 596.837 45.0513C598.029 46.3286 599.631 46.9659 601.639 46.9659C603.407 46.9659 604.818 46.5473 605.869 45.7073C606.922 44.8673 607.634 43.6273 608.005 41.9846L604.434 41.3659C604.253 42.3366 603.941 43.0193 603.503 43.4166C603.063 43.8139 602.501 44.0113 601.813 44.0113C600.89 44.0113 600.157 43.6726 599.61 42.9926C599.063 42.3099 598.791 41.1473 598.791 39.4966C598.791 38.0113 599.061 36.9553 599.599 36.3233C600.141 35.6913 600.863 35.3713 601.77 35.3713C602.45 35.3713 603.007 35.5499 603.434 35.9046C603.861 36.2593 604.135 36.7873 604.255 37.4886L607.829 36.8273C607.397 35.3713 606.687 34.2859 605.698 33.5739ZM599.97 31.0966H603.338L606.021 27.2193H603.111L601.589 29.2033L600.202 27.2193H597.247L599.97 31.0966ZM614.461 27.6593H610.847V31.0086H614.461V27.6593ZM614.461 32.8619H610.847V46.6139H614.461V32.8619ZM630.73 38.0406C630.73 36.9766 630.663 36.1579 630.53 35.5873C630.397 35.0166 630.159 34.5046 629.821 34.0539C629.482 33.6033 628.981 33.2326 628.317 32.9419C627.655 32.6539 626.925 32.5073 626.122 32.5073C624.309 32.5073 622.802 33.2993 621.607 34.8779V32.8619H618.213V46.6139H621.826V40.3579C621.826 38.8139 621.919 37.7553 622.106 37.1819C622.293 36.6113 622.639 36.1526 623.143 35.8059C623.647 35.4593 624.215 35.2833 624.85 35.2833C625.343 35.2833 625.767 35.4059 626.119 35.6486C626.471 35.8913 626.725 36.2326 626.882 36.6699C627.037 37.1073 627.117 38.0726 627.117 39.5633V46.6139H630.73V38.0406ZM637.981 35.6753C638.343 35.4166 638.853 35.2833 639.503 35.2833C640.466 35.2833 641.119 35.4353 641.466 35.7393C641.815 36.0406 641.989 36.5446 641.989 37.2539V37.6219C641.33 37.8993 640.151 38.2006 638.45 38.5206C637.191 38.7633 636.226 39.0486 635.557 39.3739C634.887 39.6993 634.367 40.1686 633.994 40.7819C633.623 41.3953 633.437 42.0913 633.437 42.8726C633.437 44.0539 633.845 45.0326 634.661 45.8059C635.474 46.5793 636.589 46.9659 638.005 46.9659C638.805 46.9659 639.559 46.8139 640.266 46.5099C640.973 46.2059 641.637 45.7526 642.258 45.1446C642.285 45.2113 642.327 45.3499 642.389 45.5633C642.525 46.0273 642.642 46.3766 642.738 46.6139H646.351C646.029 45.9553 645.807 45.3393 645.69 44.7633C645.573 44.1873 645.514 43.2939 645.514 42.0806L645.557 37.8193C645.557 36.2353 645.397 35.1473 645.074 34.5526C644.749 33.9606 644.191 33.4699 643.399 33.0859C642.605 32.7019 641.399 32.5073 639.781 32.5073C637.997 32.5073 636.653 32.8273 635.746 33.4699C634.842 34.1099 634.205 35.0966 633.834 36.4299L637.095 37.0486C637.319 36.3953 637.615 35.9366 637.981 35.6753ZM641.989 40.7366C641.989 41.6193 641.941 42.2193 641.845 42.5313C641.706 43.0139 641.415 43.4219 640.973 43.7526C640.373 44.1899 639.743 44.4086 639.082 44.4086C638.493 44.4086 638.007 44.2193 637.623 43.8459C637.242 43.4673 637.05 43.0219 637.05 42.5073C637.05 41.9819 637.29 41.5499 637.767 41.2086C638.079 40.9979 638.743 40.7846 639.762 40.5659C640.778 40.3473 641.519 40.1579 641.989 40.0006V40.7366ZM666.791 46.6139V30.8779H672.389V27.6593H657.359V30.8779H662.957V46.6139H666.791ZM676.85 42.3473C676.85 40.0006 676.951 38.4566 677.157 37.7206C677.359 36.9819 677.639 36.4753 677.997 36.1926C678.351 35.9099 678.786 35.7686 679.298 35.7686C679.826 35.7686 680.399 35.9686 681.015 36.3659L682.141 33.1926C681.375 32.7366 680.578 32.5073 679.754 32.5073C679.167 32.5073 678.645 32.6619 678.183 32.9686C677.725 33.2753 677.205 33.8913 676.631 34.8139V32.8619H673.237V46.6139H676.85V42.3473ZM686.946 46.6139V44.5953C687.498 45.3633 688.157 45.9499 688.922 46.3553C689.687 46.7633 690.461 46.9659 691.247 46.9659C692.845 46.9659 694.202 46.3286 695.319 45.0513C696.439 43.7739 696.997 41.9553 696.997 39.5926C696.997 37.3099 696.447 35.5579 695.346 34.3366C694.245 33.1179 692.853 32.5073 691.173 32.5073C689.629 32.5073 688.295 33.1446 687.167 34.4219V27.6593H683.554V46.6139H686.946ZM687.997 36.3126C688.578 35.6273 689.309 35.2833 690.186 35.2833C691.082 35.2833 691.815 35.6379 692.391 36.3393C692.962 37.0433 693.25 38.1873 693.25 39.7793C693.25 41.2699 692.965 42.3633 692.397 43.0593C691.826 43.7526 691.138 44.0993 690.33 44.0993C689.279 44.0993 688.437 43.6113 687.802 42.6326C687.349 41.9446 687.125 40.8779 687.125 39.4379C687.125 38.0406 687.415 36.9979 687.997 36.3126ZM699.362 43.5873C699.957 44.6939 700.826 45.5339 701.97 46.1073C703.114 46.6779 704.317 46.9659 705.578 46.9659C707.615 46.9659 709.303 46.2779 710.647 44.9019C711.989 43.5259 712.661 41.7899 712.661 39.6993C712.661 37.6219 711.994 35.9046 710.666 34.5473C709.338 33.1873 707.631 32.5073 705.551 32.5073C704.205 32.5073 702.986 32.8059 701.893 33.4059C700.799 34.0059 699.957 34.8726 699.362 36.0113C698.765 37.1499 698.469 38.3259 698.469 39.5419C698.469 41.1313 698.765 42.4779 699.362 43.5873ZM703.183 36.5633C703.829 35.8273 704.623 35.4593 705.57 35.4593C706.517 35.4593 707.311 35.8273 707.951 36.5633C708.594 37.2966 708.914 38.3473 708.914 39.7099C708.914 41.1099 708.594 42.1766 707.951 42.9126C707.311 43.6459 706.517 44.0113 705.57 44.0113C704.623 44.0113 703.829 43.6459 703.183 42.9126C702.538 42.1766 702.215 41.1179 702.215 39.7366C702.215 38.3553 702.538 37.2966 703.183 36.5633ZM721.797 46.6139L727.245 32.8619H723.498L720.906 39.8779C720.767 40.2673 720.639 40.6566 720.519 41.0433C720.469 41.2353 720.343 41.6273 720.149 42.2219L719.405 39.8779L716.842 32.8619H713.007L718.53 46.6139H721.797ZM732.842 27.6593H729.229V46.6139H732.842V27.6593ZM739.941 27.6593H736.327V31.0086H739.941V27.6593ZM736.327 32.8619V45.9819C736.327 47.1019 736.287 47.7766 736.207 48.0006C736.127 48.2246 735.962 48.4166 735.719 48.5766C735.474 48.7366 735.159 48.8166 734.775 48.8166C734.639 48.8166 734.495 48.8059 734.338 48.7846C734.183 48.7606 734.015 48.7339 733.837 48.6993L733.199 51.8219C733.687 51.9499 734.141 52.0486 734.565 52.1153C734.986 52.1793 735.381 52.2113 735.746 52.2113C736.765 52.2113 737.605 52.0086 738.263 51.6033C738.919 51.1953 739.365 50.6326 739.597 49.9099C739.826 49.1873 739.941 47.9499 739.941 46.1953V32.8619H736.327ZM750.527 43.7633C750.138 44.0753 749.661 44.2326 749.09 44.2326C748.255 44.2326 747.557 43.9313 746.997 43.3286C746.434 42.7233 746.143 41.8806 746.117 40.7953H755.197C755.247 37.9899 754.682 35.9073 753.503 34.5473C752.322 33.1873 750.711 32.5073 748.666 32.5073C746.847 32.5073 745.343 33.1579 744.154 34.4539C742.965 35.7526 742.37 37.5473 742.37 39.8406C742.37 41.7606 742.823 43.3499 743.73 44.6086C744.877 46.1793 746.647 46.9659 749.039 46.9659C750.549 46.9659 751.807 46.6166 752.813 45.9179C753.818 45.2193 754.554 44.2033 755.021 42.8673L751.407 42.2486C751.207 42.9446 750.914 43.4513 750.527 43.7633ZM746.181 38.5899C746.173 37.5739 746.426 36.7686 746.941 36.1739C747.453 35.5819 748.106 35.2833 748.895 35.2833C749.631 35.2833 750.258 35.5659 750.773 36.1286C751.287 36.6886 751.557 37.5099 751.583 38.5899H746.181Z" fill="white"/>
<path d="M542.191 23.2927C542.053 24.8954 541.914 26.4874 541.749 28.0847H538.538L536.162 10.33H533.557L531.301 25.9594H526.631L530.194 29.322H527.719L513.466 16.994L499.111 29.322H496.693L500.282 25.9594H495.642L493.375 10.33H490.778L488.402 28.0847H485.165C484.351 19.2634 483.567 10.442 482.789 1.64736H544.151C543.506 8.84736 542.866 16.074 542.191 23.2927ZM540.655 39.5354C540.407 41.8607 540.127 44.1594 539.733 46.458C539.567 47.354 539.343 48.1887 539.066 49.0607C538.871 49.6447 538.642 50.1807 538.365 50.7114C538.058 51.3034 537.725 51.858 537.357 52.394C536.911 53.0367 536.439 53.5994 535.933 54.186L535.042 55.1114C533.898 56.202 532.722 57.2047 531.437 58.1594L530.042 59.058L528.554 59.8714C527.775 60.234 527.021 60.5674 526.242 60.874C525.458 61.1887 524.671 61.4394 523.893 61.69L522.351 62.106C519.474 62.7834 516.543 63.2287 513.578 63.2847H513.354C511.402 63.2554 509.442 63.0047 507.519 62.698C506.261 62.4767 505.061 62.218 503.831 61.8847C503.018 61.6607 502.261 61.4394 501.482 61.1887C500.698 60.874 499.911 60.5674 499.135 60.234L497.626 59.4767L496.167 58.6394L494.799 57.658C494.159 57.122 493.543 56.6207 492.959 56.0927C492.119 55.3327 491.341 54.5727 490.583 53.7114C490.111 53.146 489.687 52.5887 489.271 51.97C488.935 51.4394 488.623 50.8767 488.346 50.3194C488.125 49.7567 487.901 49.226 487.735 48.642C487.458 47.7727 487.285 46.9007 487.117 46.01C486.559 42.5354 486.229 39.034 485.858 35.5327C485.719 33.8287 485.554 32.1434 485.386 30.466C489.605 30.466 493.829 30.4367 498.045 30.4367L498.015 30.466H541.551C541.274 33.4927 540.962 36.514 540.655 39.5354ZM545.743 0.0153644H480.943C480.943 0.0153644 484.189 37.4127 484.991 43.266C485.693 48.2207 486.005 51.7034 490.669 56.282C491.557 57.1727 492.607 58.1034 493.861 59.0927C501.471 65.0687 513.554 65.0687 513.554 65.0687C513.554 65.0687 525.645 65.0687 533.226 59.0927C540.837 53.1007 541.122 49.3007 541.922 43.442C542.743 37.5887 545.997 0.191364 545.997 0.191364L546.005 0.0686989C546.015 -0.043301 545.743 0.0153644 545.743 0.0153644Z" fill="white"/>
<path d="M517.519 48.331C517.373 46.2376 515.626 44.5763 513.469 44.5763C511.295 44.5763 509.533 46.267 509.413 48.387L507.631 46.571C508.207 44.323 510.586 42.587 513.471 42.587C516.354 42.587 518.751 44.323 519.33 46.571L517.519 48.331ZM522.431 46.571H522.479L529.413 32.5416H497.527L504.509 46.571H504.506H522.431L497.527 48.611V50.651H511.311C511.311 51.7336 512.149 52.5363 513.186 52.6936H497.527V54.7496H500.269V56.8216H502.485V54.7496H524.949V56.8056H527.165V54.7496H529.413V52.6936H513.751C514.789 52.5363 515.629 51.7336 515.629 50.651H529.413V48.611H524.431L522.431 46.571Z" fill="white"/>
</svg>
