<?xml version="1.0" standalone="no"?>
<!DOCTYPE svg PUBLIC "-//W3C//DTD SVG 20010904//EN"
 "http://www.w3.org/TR/2001/REC-SVG-20010904/DTD/svg10.dtd">
<svg version="1.0" xmlns="http://www.w3.org/2000/svg"
 width="873.000000pt" height="873.000000pt" viewBox="0 0 873.000000 873.000000"
 preserveAspectRatio="xMidYMid meet">
<metadata>
Created by potrace 1.14, written by Peter Selinger 2001-2017
</metadata>
<g transform="translate(0.000000,873.000000) scale(0.100000,-0.100000)"
fill="#000000" stroke="none">
<path d="M87 8193 c-2 -5 -4 -330 -3 -723 l1 -715 100 0 100 -1 -1 489 c-1
268 0 487 1 485 2 -2 6 -17 9 -33 3 -17 8 -41 10 -55 3 -14 8 -43 11 -65 8
-58 24 -156 30 -185 3 -14 7 -41 10 -60 3 -19 7 -48 10 -65 3 -16 7 -43 10
-60 3 -16 7 -40 9 -51 7 -34 17 -96 22 -134 2 -19 9 -59 15 -88 6 -29 13 -67
15 -85 3 -17 7 -41 8 -52 2 -11 4 -25 5 -30 1 -7 42 -10 108 -10 l108 0 13 80
c14 88 18 109 26 175 4 25 8 56 11 70 2 14 7 45 10 70 3 25 10 70 15 100 5 30
12 73 15 95 3 22 13 85 21 140 9 55 18 116 20 135 2 19 6 44 8 55 3 11 5 29 5
39 1 11 4 17 7 13 4 -3 7 -223 8 -489 l1 -483 105 0 105 0 0 723 0 722 -157 0
c-133 0 -158 -2 -159 -15 -1 -8 -2 -18 -3 -22 -2 -10 -16 -95 -22 -143 -6 -41
-9 -62 -24 -155 -16 -99 -20 -124 -25 -175 -2 -25 -5 -45 -5 -45 -1 0 -3 -11
-6 -25 -2 -14 -9 -54 -15 -89 -5 -36 -12 -83 -15 -105 -4 -41 -11 -81 -14 -81
-1 0 -3 -13 -5 -30 -10 -95 -23 -151 -26 -109 -2 33 -6 55 -32 214 -15 85 -28
169 -31 185 -2 17 -5 30 -6 30 -1 0 -3 11 -4 25 -3 31 -9 64 -52 321 -19 113
-34 209 -34 213 0 9 -308 8 -313 -1z"/>
<path d="M1193 7603 c1 -329 6 -608 9 -621 15 -51 34 -98 43 -108 6 -6 20 -24
33 -41 22 -29 68 -56 139 -83 34 -13 148 -16 203 -6 83 16 170 78 205 146 41
80 44 131 45 732 l0 578 -108 0 -108 0 1 -567 c1 -313 -3 -584 -8 -603 -11
-42 -49 -80 -83 -81 -69 -4 -78 -2 -107 24 -19 16 -28 36 -33 67 -8 67 -10
470 -2 470 4 0 5 7 2 15 -9 22 -10 145 -2 145 4 0 5 7 2 15 -9 22 -10 145 -2
145 4 0 5 7 2 15 -9 22 -10 145 -2 145 4 0 5 7 2 15 -8 20 -10 145 -3 145 3 0
4 11 1 25 -4 25 -5 25 -119 25 l-114 0 4 -597z"/>
<path d="M2009 8150 c0 -27 -1 -66 -1 -85 0 -79 -20 -72 200 -70 108 1 200 0
204 -2 6 -3 -30 -100 -62 -168 -14 -29 -131 -308 -134 -320 -2 -5 -9 -23 -16
-40 -7 -16 -14 -32 -15 -35 -3 -9 -18 -44 -42 -99 -12 -29 -23 -60 -23 -67 0
-8 -4 -14 -10 -14 -5 0 -10 -5 -10 -12 0 -7 -25 -73 -56 -146 -57 -138 -57
-138 -55 -287 l1 -50 330 0 c287 0 330 2 331 15 4 72 3 174 -2 181 -3 6 -94
10 -212 11 -114 0 -207 5 -207 10 0 5 20 57 45 116 24 59 119 287 210 506
l167 399 2 91 c1 50 0 97 -2 104 -3 9 -77 12 -323 12 l-319 0 -1 -50z"/>
<path d="M2789 8198 c-5 -14 -2 -1423 3 -1431 9 -15 606 -17 611 -2 2 5 4 52
3 103 l-1 93 -195 2 -195 2 0 203 c0 112 2 207 5 211 3 3 73 6 155 6 l150 0 1
103 1 102 -26 1 c-14 0 -84 1 -156 2 l-130 2 -1 198 c0 192 0 197 20 198 12 1
100 2 196 3 l175 1 1 103 0 102 -308 0 c-169 0 -308 -1 -309 -2z"/>
<path d="M3698 8198 c0 -2 -2 -253 -3 -558 -1 -305 -5 -571 -9 -591 -11 -59
-46 -84 -123 -86 -36 -1 -68 -5 -71 -8 -4 -3 -7 -49 -7 -101 -1 -112 -5 -108
126 -101 116 7 169 28 230 91 17 18 46 70 49 91 1 6 7 19 12 29 17 32 27 362
13 399 -4 9 -3 17 1 17 8 0 10 54 4 70 -1 3 -1 10 0 15 6 23 1 201 -5 218 -4
9 -3 17 1 17 5 0 8 48 6 107 -3 120 -3 110 -1 245 1 53 -2 101 -5 106 -4 6 -2
13 4 17 27 17 -11 25 -111 25 -60 0 -110 -1 -111 -2z"/>
<path d="M4022 6318 c-70 -26 -135 -92 -163 -166 -26 -70 -34 -217 -15 -289
31 -117 58 -156 223 -320 168 -167 209 -234 206 -330 -1 -13 -1 -34 -2 -48 -1
-14 -13 -39 -29 -56 -50 -57 -160 -41 -188 27 -7 17 -15 65 -16 105 l-3 74
-105 0 -105 0 2 -95 c1 -105 26 -190 71 -246 32 -40 118 -93 158 -97 16 -2 34
-6 39 -9 20 -10 143 0 197 17 140 43 211 167 207 355 -2 90 -29 184 -69 240
-11 15 -20 32 -20 36 0 4 -67 73 -148 154 -103 102 -155 161 -172 195 -26 56
-37 142 -23 195 11 42 59 78 100 74 15 -1 33 -2 40 -3 17 -1 69 -48 71 -63 1
-7 3 -40 5 -73 l3 -60 108 -1 108 0 -5 75 c-7 93 -10 108 -35 165 -28 62 -90
120 -154 144 -74 28 -212 28 -286 0z"/>
<path d="M288 6325 c-2 -2 -17 -5 -34 -8 -81 -13 -167 -74 -204 -147 -45 -87
-56 -239 -26 -341 31 -108 80 -172 275 -362 100 -97 147 -177 150 -255 2 -46
-14 -109 -33 -128 -30 -30 -113 -35 -153 -9 -34 22 -45 58 -47 145 l-2 75
-108 3 -107 3 2 -83 c5 -180 53 -276 166 -333 70 -34 139 -43 244 -31 130 15
225 108 257 251 13 60 7 183 -12 249 -27 92 -77 159 -226 306 -153 152 -192
212 -195 304 -3 109 33 155 119 152 41 -2 53 -7 75 -33 21 -25 27 -44 29 -95
2 -34 7 -65 12 -68 7 -4 72 -5 181 -1 26 1 27 2 23 67 -5 90 -9 106 -39 172
-48 106 -142 161 -282 167 -34 1 -64 1 -65 0z"/>
<path d="M2155 6315 c-116 -27 -210 -111 -229 -206 -3 -13 -9 -44 -13 -69 -11
-53 -10 -895 1 -927 4 -12 9 -31 11 -43 6 -32 29 -80 37 -80 5 0 8 -6 8 -14 0
-19 63 -71 115 -95 140 -65 347 -30 429 74 42 52 60 94 74 175 8 45 7 901 -1
930 -22 81 -32 105 -60 142 -61 80 -141 117 -264 122 -32 2 -80 -3 -108 -9z
m150 -207 c15 -7 35 -28 44 -47 17 -33 18 -75 18 -471 1 -483 -1 -494 -60
-522 -61 -28 -129 -9 -160 47 -9 14 -12 150 -13 467 -1 383 1 452 14 479 25
51 100 73 157 47z"/>
<path d="M2979 6319 c-7 -4 -9 -17 -5 -35 4 -16 10 -47 12 -69 5 -44 9 -68 18
-105 3 -14 8 -47 12 -75 3 -27 8 -63 10 -80 2 -16 8 -55 14 -85 11 -66 16 -98
26 -165 3 -27 8 -59 10 -70 7 -33 33 -207 38 -250 3 -22 7 -47 10 -55 2 -8 7
-37 10 -65 3 -27 8 -59 10 -70 6 -31 19 -118 21 -135 1 -14 12 -84 20 -125 2
-11 4 -28 4 -37 1 -16 16 -18 171 -18 94 0 170 3 171 8 0 4 2 14 4 22 6 29 26
152 31 187 1 13 5 42 9 65 4 24 8 54 10 68 2 14 13 81 24 150 11 69 22 145 26
170 3 25 10 70 15 100 5 30 12 73 15 95 4 22 8 54 11 70 7 44 12 76 18 118 3
20 8 52 11 70 9 53 15 100 21 142 2 22 7 46 9 53 2 7 7 38 11 70 l6 58 -101 0
c-83 0 -102 -3 -105 -15 -5 -15 -12 -58 -22 -131 -2 -19 -6 -48 -9 -65 -3 -16
-7 -48 -10 -70 -3 -22 -7 -49 -10 -60 -2 -11 -7 -42 -10 -70 -3 -27 -10 -75
-15 -105 -5 -30 -12 -77 -16 -105 -3 -27 -8 -59 -10 -70 -2 -10 -6 -37 -9 -60
-3 -22 -8 -58 -12 -80 -3 -22 -7 -52 -9 -67 -2 -16 -6 -40 -9 -55 -9 -57 -14
-90 -20 -148 -4 -33 -8 -61 -10 -63 -3 -3 -18 83 -30 173 -3 22 -8 54 -11 70
-3 17 -7 46 -9 65 -6 46 -13 88 -19 125 -3 17 -8 53 -11 80 -3 28 -8 64 -11
80 -3 17 -7 44 -9 60 -2 17 -7 48 -10 70 -7 42 -10 63 -20 130 -3 23 -7 52
-10 65 -3 14 -7 47 -11 74 -3 28 -9 70 -14 95 -4 25 -6 49 -4 53 10 16 -27 23
-118 24 -54 0 -103 -3 -109 -7z"/>
<path d="M4635 6320 c-2 -4 -4 -329 -4 -723 l1 -717 114 0 114 0 -2 722 -3
723 -108 0 c-60 1 -110 -2 -112 -5z"/>
<path d="M5026 6320 c-6 -11 2 -719 8 -805 7 -82 15 -236 16 -293 0 -22 2 -23
87 -20 l87 3 2 45 c3 69 15 289 19 345 3 49 6 368 5 611 l0 121 -111 -1 c-61
0 -112 -3 -113 -6z"/>
<path d="M5719 6318 c0 -4 -1 -54 -2 -110 l-1 -103 1475 -1 c811 -1 1479 2
1484 7 8 6 11 134 6 205 -1 13 -2960 15 -2962 2z"/>
<path d="M807 6303 c-2 -5 -3 -330 -2 -723 l0 -715 97 -1 c90 -1 96 0 100 20
2 12 3 233 3 493 -1 260 1 471 3 469 2 -2 5 -17 8 -33 7 -47 12 -78 14 -78 1
0 3 -13 4 -30 1 -16 5 -46 9 -65 11 -54 17 -92 23 -135 2 -22 7 -51 10 -65 4
-14 8 -38 11 -55 2 -16 9 -57 15 -90 6 -33 12 -71 13 -85 2 -14 6 -34 8 -45 2
-11 8 -42 12 -70 4 -27 9 -59 11 -70 2 -11 6 -36 9 -55 3 -19 7 -44 9 -55 3
-11 5 -27 5 -36 1 -13 17 -15 105 -15 57 1 107 3 110 6 4 5 13 55 31 175 6 44
12 83 20 130 3 17 8 48 11 70 6 49 53 361 59 394 2 13 7 43 10 65 4 23 8 50
10 61 2 11 4 32 4 48 1 15 4 27 9 27 4 0 6 -213 6 -472 -1 -260 0 -480 2 -489
4 -13 20 -15 97 -14 50 1 98 2 105 3 9 2 13 20 13 65 -1 34 -1 69 -1 77 1 8
-1 303 -2 655 l-3 640 -157 3 c-87 1 -158 -1 -159 -5 -1 -21 -12 -97 -23 -173
-2 -14 -7 -45 -11 -70 -3 -25 -9 -58 -12 -75 -3 -16 -6 -41 -8 -55 -5 -46 -17
-125 -22 -145 -2 -11 -6 -36 -8 -55 -2 -19 -6 -49 -9 -66 -6 -30 -11 -67 -21
-141 -3 -21 -7 -49 -10 -63 -7 -36 -17 -113 -18 -127 0 -7 -4 -13 -9 -13 -4 0
-8 6 -9 13 0 6 -2 20 -4 29 -2 9 -6 34 -9 55 -3 21 -8 49 -10 63 -5 25 -12 70
-21 138 -3 20 -9 51 -12 67 -4 17 -7 37 -8 45 -4 30 -16 106 -20 130 -3 14 -7
39 -9 55 -3 17 -17 100 -31 185 -15 85 -28 164 -30 175 -1 11 -3 23 -4 28 0 4
-70 7 -155 7 -85 0 -156 -3 -159 -7z"/>
<path d="M7888 5695 c-2 -2 -30 -5 -63 -9 -69 -7 -102 -13 -113 -20 -5 -3 -19
-7 -33 -9 -47 -9 -161 -70 -217 -116 -90 -75 -173 -196 -207 -301 -10 -31 -25
-91 -29 -115 -3 -16 -8 -41 -11 -55 -3 -14 -8 -65 -11 -114 -3 -49 -7 -93 -10
-98 -3 -4 -2 -8 3 -8 8 0 7 -194 -1 -217 -3 -7 -2 -13 2 -13 4 0 7 -27 7 -60
0 -33 -3 -60 -7 -60 -4 0 -5 -6 -2 -13 8 -23 10 -98 2 -103 -4 -3 -5 -11 -1
-19 8 -22 9 -265 1 -265 -4 0 -5 -6 -2 -14 9 -24 10 -306 1 -306 -5 0 -6 -4
-2 -9 3 -6 7 -79 9 -163 3 -84 7 -164 10 -178 3 -14 8 -38 12 -55 14 -73 87
-250 114 -275 3 -3 22 -26 42 -52 63 -78 180 -156 293 -196 49 -18 201 -44
250 -43 227 4 359 39 494 130 58 40 149 133 176 182 69 123 113 260 121 378 1
25 3 48 4 51 2 6 2 1395 0 1395 -1 0 -3 23 -5 52 -16 243 -125 458 -291 573
-42 30 -162 90 -173 88 -3 -1 -25 4 -49 11 -23 6 -61 14 -85 17 -44 6 -225 12
-229 9z m172 -540 c30 -27 62 -105 68 -165 7 -71 7 -1397 0 -1472 -6 -67 -42
-144 -80 -172 -39 -28 -128 -28 -165 0 -39 29 -70 88 -82 158 -15 81 -14 1470
1 1523 23 86 52 127 103 145 35 12 135 1 155 -17z"/>
<path d="M5719 5645 c0 -5 -1 -102 -2 -214 -2 -183 0 -204 15 -210 9 -3 178
-6 375 -5 197 1 361 0 364 -2 6 -3 -6 -55 -46 -206 -3 -10 -7 -26 -9 -35 -2
-10 -16 -63 -31 -118 -14 -55 -28 -108 -30 -118 -2 -10 -7 -27 -10 -37 -3 -10
-8 -28 -10 -39 -9 -41 -13 -57 -39 -157 -15 -56 -29 -110 -31 -120 -2 -11 -16
-62 -30 -114 -14 -52 -28 -106 -31 -120 -3 -14 -19 -76 -35 -138 -17 -62 -32
-120 -34 -130 -4 -16 -22 -88 -30 -122 -2 -8 -14 -51 -25 -95 -12 -44 -25 -96
-30 -115 -5 -19 -34 -132 -65 -250 -31 -118 -58 -224 -59 -235 -2 -11 -6 -27
-9 -35 -16 -41 -44 -161 -38 -164 3 -2 129 -4 279 -4 l273 -1 9 25 c5 13 12
35 14 47 2 12 23 96 46 187 23 91 43 172 45 180 2 8 8 35 15 60 7 25 13 52 15
60 2 8 15 58 29 110 14 52 27 106 30 120 3 14 19 79 36 145 30 114 58 222 65
255 2 8 4 17 5 20 1 3 2 8 1 12 0 4 4 20 10 35 6 15 13 42 16 58 3 17 9 38 14
48 5 9 7 17 5 17 -3 0 1 18 9 39 7 22 11 42 8 44 -3 3 -1 12 3 19 5 7 9 18 10
23 1 6 14 57 29 115 15 58 28 112 30 120 2 8 11 44 20 80 16 61 19 74 29 118
2 9 9 37 16 62 7 25 14 52 15 60 4 17 64 250 69 265 16 54 26 155 14 155 -4 0
-5 6 -2 14 9 24 10 80 2 104 -4 13 -5 21 0 19 4 -3 7 35 7 84 0 49 -2 90 -5
90 -3 1 -301 2 -662 3 -433 1 -658 -2 -659 -9z"/>
<path d="M5029 5088 c-1 -12 0 -169 1 -195 0 -10 29 -13 109 -13 l108 0 0 110
0 110 -109 0 c-79 0 -108 -3 -109 -12z"/>
<path d="M3637 4358 c-9 -5 -12 -80 -13 -258 0 -219 2 -250 15 -251 9 0 114
-1 234 -1 119 -1 217 -4 218 -7 0 -3 2 -589 2 -1301 l2 -1295 342 -1 c243 -1
343 2 346 10 2 6 3 592 3 1302 l-1 1291 227 0 c125 0 230 1 232 4 5 4 8 189 6
411 l0 98 -801 2 c-440 2 -806 0 -812 -4z"/>
<path d="M119 4338 c-1 -30 -1 -409 0 -428 1 -14 44 -16 357 -15 196 0 358 -3
360 -6 3 -6 -8 -47 -24 -89 -3 -8 -6 -17 -7 -20 0 -3 -14 -43 -30 -90 -16 -47
-30 -89 -31 -95 -2 -5 -33 -95 -69 -200 -37 -104 -67 -194 -69 -200 -5 -21
-49 -151 -55 -160 -3 -5 -6 -15 -7 -21 -2 -11 -38 -119 -51 -154 -3 -8 -7 -19
-9 -25 -1 -5 -16 -48 -33 -95 -18 -47 -34 -94 -36 -105 -5 -20 -120 -357 -132
-385 -3 -8 -7 -19 -8 -25 0 -5 -4 -17 -8 -25 -3 -8 -17 -49 -31 -90 -13 -41
-53 -156 -87 -255 l-63 -180 -1 -216 -2 -217 723 0 724 0 0 233 0 233 -385 0
c-212 0 -388 2 -391 4 -2 3 1 18 7 34 7 16 13 31 14 34 12 42 50 154 130 385
53 154 114 334 136 400 22 66 44 129 48 140 11 24 82 236 85 250 1 6 4 15 7
20 4 6 12 28 19 50 13 42 137 409 147 435 3 8 7 20 9 25 1 6 39 116 84 245
l82 235 0 185 c0 102 0 191 -1 198 -1 9 -148 12 -701 12 l-700 0 -1 -22z"/>
<path d="M2329 4353 c-1 -5 -1 -12 0 -16 1 -5 3 -21 5 -35 2 -15 27 -148 55
-297 28 -148 54 -283 57 -300 3 -16 13 -73 24 -125 10 -52 21 -108 23 -125 3
-16 8 -41 11 -55 4 -14 9 -41 12 -60 5 -38 6 -40 22 -120 11 -54 47 -240 56
-290 4 -26 35 -191 42 -225 2 -11 7 -35 10 -53 10 -54 35 -49 42 8 1 14 5 32
9 40 3 8 7 26 9 40 2 14 13 70 24 125 12 55 24 111 26 125 3 14 20 101 39 193
19 93 37 182 40 198 3 16 12 62 21 102 8 39 18 83 20 97 4 21 12 62 30 145 1
6 5 27 8 49 3 21 8 42 11 46 2 4 6 22 9 41 2 19 16 90 31 159 14 69 28 136 31
150 5 30 12 66 20 100 3 14 8 40 11 58 l6 32 -352 0 c-193 0 -352 -3 -352 -7z"/>
<path d="M2076 3191 c-3 -5 -8 -105 -11 -223 -3 -117 -7 -310 -10 -428 -13
-578 -22 -993 -25 -1175 l-2 -120 211 -2 c116 -1 212 2 214 5 2 4 -6 58 -19
120 -12 62 -25 128 -28 145 -2 18 -10 59 -16 92 -6 33 -13 74 -16 90 -2 17 -7
41 -10 55 -3 14 -8 36 -10 50 -10 56 -44 247 -49 270 -3 14 -16 86 -29 160
-14 74 -28 149 -31 165 -3 17 -8 45 -11 64 -3 18 -8 43 -10 55 -2 11 -8 46
-14 76 -6 30 -13 66 -16 80 -3 14 -7 38 -9 53 -2 15 -9 54 -15 85 -6 31 -13
66 -15 77 -2 11 -11 58 -19 105 -34 188 -36 199 -46 205 -5 3 -11 1 -14 -4z"/>
<path d="M3221 3128 c-6 -29 -13 -69 -16 -88 -3 -19 -12 -71 -20 -115 -8 -44
-17 -96 -19 -115 -3 -19 -5 -35 -6 -35 -2 0 -7 -26 -14 -72 -3 -21 -10 -63
-16 -93 -6 -30 -13 -71 -16 -90 -3 -19 -8 -48 -11 -65 -3 -16 -7 -39 -8 -50
-11 -67 -18 -105 -25 -139 -5 -22 -7 -44 -4 -48 3 -4 0 -8 -6 -8 -6 0 -9 -3
-6 -8 2 -4 1 -28 -4 -52 -5 -25 -11 -61 -14 -80 -3 -19 -8 -46 -10 -60 -18
-94 -58 -320 -61 -345 -5 -40 -12 -81 -19 -103 -3 -9 -7 -37 -10 -61 -3 -25
-10 -67 -15 -95 -6 -28 -12 -64 -15 -81 -2 -16 -7 -42 -11 -57 l-7 -27 211 0
212 0 -6 202 c-3 111 -7 283 -10 382 -6 216 -14 532 -20 709 -2 71 -7 237 -10
370 -3 133 -8 249 -11 259 -10 31 -22 18 -33 -35z"/>
<path d="M5889 2366 c-1 -1 -2 -412 -3 -913 l-1 -913 80 -1 c83 0 587 0 688 1
l57 0 0 135 c0 101 -3 135 -12 136 -7 1 -102 1 -210 1 l-198 0 0 778 0 777
-200 0 c-110 0 -201 0 -201 -1z"/>
<path d="M6869 2366 c0 -1 -2 -411 -2 -913 l-2 -912 70 -3 c39 -2 225 -1 414
2 l345 5 1 128 c0 71 -4 131 -9 134 -5 4 -100 6 -212 6 l-202 0 1 271 2 271
120 2 c66 1 137 2 158 2 l37 1 0 140 0 140 -160 0 -160 0 2 227 3 227 208 -1
207 0 0 137 0 137 -410 0 c-225 0 -410 -1 -411 -1z"/>
<path d="M7769 2361 c-4 -21 -3 -291 1 -292 3 0 65 -1 138 -1 l132 -1 1 -41
c0 -23 0 -366 0 -763 l0 -722 162 -3 c89 -2 181 -2 203 0 l42 3 0 712 c0 392
1 735 1 763 l1 51 130 0 c71 0 132 2 136 5 3 4 6 71 7 150 l0 143 -476 1
c-262 0 -478 -2 -478 -5z"/>
<path d="M0 653 l0 -113 343 0 c1932 -2 4901 0 4904 4 4 4 5 69 4 171 l-1 50
-2625 0 -2625 0 0 -112z"/>
</g>
</svg>
